<svg xmlns="http://www.w3.org/2000/svg" xmlns:svgjs="http://svgjs.com/svgjs" xmlns:xlink="http://www.w3.org/1999/xlink" width="288" height="288"><svg xmlns="http://www.w3.org/2000/svg" xmlns:xlink="http://www.w3.org/1999/xlink" width="288" height="288" viewBox="0 0 700 700"><defs><symbol id="a" overflow="visible"><path fill="#16a34a" d="m29.312-1.75c-1.5117 0.78125-3.0898 1.3711-4.7344 1.7656-1.6367 0.40625-3.3398 0.60938-5.1094 0.60938-5.3125 0-9.5273-1.4844-12.641-4.4531-3.1055-2.9688-4.6562-7-4.6562-12.094s1.5508-9.125 4.6562-12.094c3.1133-2.9688 7.3281-4.4531 12.641-4.4531 1.7695 0 3.4727 0.19922 5.1094 0.59375 1.6445 0.39844 3.2227 0.99219 4.7344 1.7812v6.5938c-1.5312-1.0391-3.0391-1.8008-4.5156-2.2812-1.4805-0.48828-3.0391-0.73438-4.6719-0.73438-2.9375 0-5.2461 0.94531-6.9219 2.8281-1.6797 1.875-2.5156 4.4648-2.5156 7.7656 0 3.293 0.83594 5.8828 2.5156 7.7656 1.6758 1.875 3.9844 2.8125 6.9219 2.8125 1.6328 0 3.1914-0.23828 4.6719-0.71875 1.4766-0.48828 2.9844-1.2539 4.5156-2.2969z" class="color000 svgShape"/></symbol><symbol id="b" overflow="visible"><path fill="#16a34a" d="m21.453-17.406c-0.67969-0.3125-1.3516-0.53906-2.0156-0.6875-0.65625-0.15625-1.3203-0.23438-1.9844-0.23438-1.9688 0-3.4844 0.63281-4.5469 1.8906-1.0547 1.2617-1.5781 3.0703-1.5781 5.4219v11.016h-7.6562v-23.922h7.6562v3.9219c0.97656-1.5625 2.1016-2.7031 3.375-3.4219 1.2812-0.71875 2.8125-1.0781 4.5938-1.0781 0.25 0 0.52344 0.011719 0.82812 0.03125 0.30078 0.023438 0.73438 0.070312 1.2969 0.14062z" class="color000 svgShape"/></symbol><symbol id="c" overflow="visible"><path fill="#16a34a" d="m27.562-12.031v2.1875h-17.891c0.1875 1.793 0.83203 3.1367 1.9375 4.0312 1.1133 0.89844 2.6719 1.3438 4.6719 1.3438 1.6016 0 3.25-0.23438 4.9375-0.70312 1.6875-0.47656 3.4219-1.2031 5.2031-2.1719v5.8906c-1.8047 0.6875-3.6094 1.2031-5.4219 1.5469-1.8125 0.35156-3.6211 0.53125-5.4219 0.53125-4.3359 0-7.7031-1.0977-10.109-3.2969-2.3984-2.207-3.5938-5.2969-3.5938-9.2656 0-3.9062 1.1758-6.9727 3.5312-9.2031 2.3633-2.2383 5.6094-3.3594 9.7344-3.3594 3.7578 0 6.7695 1.1367 9.0312 3.4062 2.2578 2.2617 3.3906 5.2812 3.3906 9.0625zm-7.8594-2.5312c0-1.457-0.42969-2.6289-1.2812-3.5156-0.84375-0.89453-1.9492-1.3438-3.3125-1.3438-1.4922 0-2.6992 0.41797-3.625 1.25-0.91797 0.83594-1.4922 2.0391-1.7188 3.6094z" class="color000 svgShape"/></symbol><symbol id="d" overflow="visible"><path fill="#16a34a" d="m14.391-10.766c-1.5938 0-2.793 0.27344-3.5938 0.8125-0.80469 0.54297-1.2031 1.3398-1.2031 2.3906 0 0.96875 0.32031 1.7305 0.96875 2.2812 0.64453 0.54297 1.5469 0.8125 2.7031 0.8125 1.4375 0 2.6445-0.51562 3.625-1.5469 0.98828-1.0312 1.4844-2.3203 1.4844-3.875v-0.875zm11.688-2.8906v13.656h-7.7031v-3.5469c-1.0312 1.4492-2.1875 2.5078-3.4688 3.1719s-2.8398 1-4.6719 1c-2.4805 0-4.4961-0.72266-6.0469-2.1719-1.543-1.4453-2.3125-3.3203-2.3125-5.625 0-2.8125 0.96094-4.8672 2.8906-6.1719 1.9375-1.3125 4.9688-1.9688 9.0938-1.9688h4.5156v-0.60938c0-1.207-0.48047-2.0938-1.4375-2.6562-0.94922-0.5625-2.4375-0.84375-4.4688-0.84375-1.6367 0-3.1562 0.16797-4.5625 0.5-1.4062 0.32422-2.7188 0.8125-3.9375 1.4688v-5.8281c1.6445-0.40625 3.2891-0.70703 4.9375-0.90625 1.6562-0.20703 3.3047-0.3125 4.9531-0.3125 4.3203 0 7.4375 0.85547 9.3438 2.5625 1.9141 1.6992 2.875 4.4609 2.875 8.2812z" class="color000 svgShape"/></symbol><symbol id="e" overflow="visible"><path fill="#16a34a" d="m12.031-30.719v6.7969h7.875v5.4688h-7.875v10.141c0 1.1172 0.21875 1.8711 0.65625 2.2656 0.4375 0.38672 1.3125 0.57812 2.625 0.57812h3.9375v5.4688h-6.5625c-3.0234 0-5.1641-0.62891-6.4219-1.8906-1.2617-1.2578-1.8906-3.3984-1.8906-6.4219v-10.141h-3.7969v-5.4688h3.7969v-6.7969z" class="color000 svgShape"/></symbol><symbol id="f" overflow="visible"><path fill="#16a34a" d="m19.953-20.422v-12.812h7.6875v33.234h-7.6875v-3.4531c-1.0547 1.4062-2.2148 2.4375-3.4844 3.0938-1.2734 0.65625-2.7422 0.98438-4.4062 0.98438-2.9492 0-5.3711-1.1719-7.2656-3.5156-1.8867-2.3438-2.8281-5.3594-2.8281-9.0469s0.94141-6.7031 2.8281-9.0469c1.8945-2.3438 4.3164-3.5156 7.2656-3.5156 1.6562 0 3.1172 0.33594 4.3906 1 1.2812 0.65625 2.4453 1.6836 3.5 3.0781zm-5.0469 15.484c1.6445 0 2.8945-0.59766 3.75-1.7969 0.86328-1.1953 1.2969-2.9297 1.2969-5.2031 0-2.2812-0.43359-4.0195-1.2969-5.2188-0.85547-1.1953-2.1055-1.7969-3.75-1.7969-1.625 0-2.8711 0.60156-3.7344 1.7969-0.85547 1.1992-1.2812 2.9375-1.2812 5.2188 0 2.2734 0.42578 4.0078 1.2812 5.2031 0.86328 1.1992 2.1094 1.7969 3.7344 1.7969z" class="color000 svgShape"/></symbol><symbol id="g" overflow="visible"><path fill="#16a34a" d="m16.406-4.9375c1.6328 0 2.8828-0.59766 3.75-1.7969 0.86328-1.1953 1.2969-2.9297 1.2969-5.2031 0-2.2812-0.43359-4.0195-1.2969-5.2188-0.86719-1.1953-2.1172-1.7969-3.75-1.7969-1.6367 0-2.8906 0.60547-3.7656 1.8125-0.875 1.1992-1.3125 2.9336-1.3125 5.2031 0 2.2617 0.4375 3.9961 1.3125 5.2031 0.875 1.1992 2.1289 1.7969 3.7656 1.7969zm-5.0781-15.484c1.0508-1.3945 2.2188-2.4219 3.5-3.0781 1.2812-0.66406 2.7539-1 4.4219-1 2.9453 0 5.3672 1.1719 7.2656 3.5156 1.8945 2.3438 2.8438 5.3594 2.8438 9.0469s-0.94922 6.7031-2.8438 9.0469c-1.8984 2.3438-4.3203 3.5156-7.2656 3.5156-1.668 0-3.1406-0.33594-4.4219-1s-2.4492-1.6914-3.5-3.0781v3.4531h-7.6562v-33.234h7.6562z" class="color000 svgShape"/></symbol><symbol id="h" overflow="visible"><path fill="#16a34a" d="m0.53125-23.922h7.6562l6.4219 16.234 5.4688-16.234h7.6562l-10.062 26.188c-1.0117 2.6641-2.1953 4.5234-3.5469 5.5781-1.3438 1.0625-3.1211 1.5938-5.3281 1.5938h-4.4219v-5.0156h2.3906c1.3008 0 2.2422-0.21094 2.8281-0.625 0.59375-0.40625 1.0547-1.1484 1.3906-2.2188l0.20312-0.65625z" class="color000 svgShape"/></symbol><symbol id="i" overflow="visible"><path fill="#16a34a" d="m0.21875-31.891h29.391v6.2188h-10.578v25.672h-8.2188v-25.672h-10.594z" class="color000 svgShape"/></symbol><symbol id="j" overflow="visible"><path fill="#16a34a" d="m25.844-19.953c0.96875-1.4766 2.1172-2.6016 3.4531-3.375 1.332-0.78125 2.7969-1.1719 4.3906-1.1719 2.75 0 4.8438 0.85156 6.2812 2.5469 1.4375 1.6875 2.1562 4.1523 2.1562 7.3906v14.562h-7.6875v-12.469c0.007812-0.1875 0.019531-0.37891 0.03125-0.57812 0.007812-0.19531 0.015625-0.48438 0.015625-0.85938 0-1.6953-0.25-2.9258-0.75-3.6875-0.5-0.75781-1.3086-1.1406-2.4219-1.1406-1.4492 0-2.5703 0.60156-3.3594 1.7969-0.79297 1.1992-1.2031 2.9297-1.2344 5.1875v11.75h-7.6875v-12.469c0-2.6562-0.23047-4.3633-0.6875-5.125-0.44922-0.75781-1.2578-1.1406-2.4219-1.1406-1.4688 0-2.6055 0.60547-3.4062 1.8125-0.79297 1.1992-1.1875 2.918-1.1875 5.1562v11.766h-7.7031v-23.922h7.7031v3.5c0.9375-1.3516 2.0156-2.3672 3.2344-3.0469 1.2188-0.6875 2.5547-1.0312 4.0156-1.0312 1.6562 0 3.1133 0.40234 4.375 1.2031 1.2695 0.79297 2.2344 1.9062 2.8906 3.3438z" class="color000 svgShape"/></symbol><symbol id="k" overflow="visible"><path fill="#16a34a" d="m11.328-3.4531v12.547h-7.6562v-33.016h7.6562v3.5c1.0508-1.3945 2.2188-2.4219 3.5-3.0781 1.2812-0.66406 2.7539-1 4.4219-1 2.9453 0 5.3672 1.1719 7.2656 3.5156 1.8945 2.3438 2.8438 5.3594 2.8438 9.0469s-0.94922 6.7031-2.8438 9.0469c-1.8984 2.3438-4.3203 3.5156-7.2656 3.5156-1.668 0-3.1406-0.33594-4.4219-1s-2.4492-1.6914-3.5-3.0781zm5.0781-15.5c-1.6367 0-2.8906 0.60547-3.7656 1.8125-0.875 1.1992-1.3125 2.9336-1.3125 5.2031 0 2.2617 0.4375 3.9961 1.3125 5.2031 0.875 1.1992 2.1289 1.7969 3.7656 1.7969 1.6328 0 2.8828-0.59766 3.75-1.7969 0.86328-1.1953 1.2969-2.9297 1.2969-5.2031 0-2.2812-0.43359-4.0195-1.2969-5.2188-0.86719-1.1953-2.1172-1.7969-3.75-1.7969z" class="color000 svgShape"/></symbol><symbol id="l" overflow="visible"><path fill="#16a34a" d="m3.6719-33.234h7.6562v33.234h-7.6562z" class="color000 svgShape"/></symbol></defs><path fill="#16a34a" d="m357.73 97.371-24.676 65.809c-0.62109 1.6641-0.72656 3.4727-0.29688 5.1992l16.711 66.859-23.18 46.359-22.812 7.6133 5.5391 16.59 26.25-8.75c2.1953-0.72656 4.0156-2.3086 5.0586-4.3828l26.25-52.5c0.92578-1.8633 1.1641-4.0078 0.66406-6.0391l-16.836-67.359 25.297-67.445c0.98828-2.6328 0.64844-5.582-0.91016-7.9258l-15.254-22.867c-0.51953-0.76953-0.78906-1.6719-0.78906-2.6016 0-2.5781 2.1016-4.6797 4.6797-4.6797h1.3984c17.57 0 35.168 4.1562 50.871 12.016l0.42188 0.21094c-4.543 5.4844-10.527 9.6094-17.457 11.918l-7.6914 2.5625c-2.6094 0.875-4.6641 2.9219-5.5312 5.5312l-26.25 78.75c-0.78906 2.3633-0.53516 4.9453 0.70703 7.1055l33.453 58.547-7.3672 44.23-21.254 7.0859 5.5391 16.59 26.25-8.75c3.0703-1.0156 5.3281-3.668 5.8633-6.8594l8.75-52.5c0.33203-1.9961-0.035156-4.0234-1.0312-5.7852l-33.059-57.855 23.633-70.891 3.543-1.1797c14.191-4.7344 25.68-14.699 32.367-28.07 2.1602-4.3242 0.40234-9.582-3.9102-11.742l-9.1367-4.5664c-18.133-9.0508-38.434-13.848-58.707-13.848h-1.3984c-12.234 0-22.184 9.9492-22.184 22.18 0 4.3906 1.2852 8.6445 3.7266 12.301z" class="color000 svgShape"/><path fill="#16a34a" d="M429.38 110.5l17.5-43.75 16.258 6.5039-17.5 43.75zM455.91 118.59l17.5-34.996 15.652 7.8242-17.5 34.996zM482.16 136.09l17.5-34.996 15.652 7.8242-17.5 34.996zM501.31 151.31l26.254-26.254 12.375 12.375-26.254 26.254zM520.17 176.48l26.254-17.504 9.707 14.562-26.254 17.504zM530.99 201.71l26.25-8.75 5.5352 16.602-26.25 8.75zM547.32 228.42l17.5-8.75 7.8242 15.652-17.5 8.75zM569.66 258.6l8.75-17.5 15.652 7.8242-8.75 17.5zM603.75 253.75h17.5v17.5h-17.5zM156.87 108.66l-39.207 19.602-4.8398-9.668-15.652 7.832 8.75 17.5c1.5352 3.0625 4.625 4.8281 7.8359 4.8281 1.3125 0 2.6523-.29688 3.9023-.91797l47.031-23.52c17.027-8.5156 28.938-24.105 32.664-42.777l3.7109-18.578-.078125-.015625c.21875-1.1211.30469-2.2656.078125-3.4141l-8.75-43.75c-.80469-4.0859-4.3945-7.0273-8.5664-7.0273h-9.7227c-12.164 0-24.344 2.8789-35.219 8.3125l-16.527 8.2695c-26.855 13.422-43.531 40.406-43.531 70.918 0 3.5352 2.1367 6.7305 5.3984 8.0859 1.0859.44531 2.2227.66406 3.3516.66406 2.2734 0 4.5156-.89062 6.1875-2.5625l13.039-13.039 11.855 5.9336c4.332 2.1719 9.582.41016 11.742-3.9102l4.8398-9.668 9.668 4.8398c4.3398 2.1719 9.582.41016 11.742-3.9102l6.332-12.684h18.918l-1.6172 8.1016c-2.668 13.336-11.176 24.477-23.336 30.555zm.62891-56.156c-3.3164 0-6.3438 1.8711-7.832 4.8398l-4.8281 9.668-9.6797-4.8398c-4.332-2.168-9.582-.40234-11.742 3.9219l-4.8281 9.668-9.6797-4.8398c-1.2422-.61328-2.582-.91797-3.9102-.91797-1.1797 0-2.3633.23438-3.4492.70703 5.6523-12.68 15.574-23.238 28.559-29.723l16.527-8.2617c8.457-4.2422 17.934-6.4727 27.391-6.4727h2.5547l5.25 26.25zM218.75 35h17.5v52.5h-17.5zM341.25 65.93v-30.93h-17.5v35h17.5z" class="color000 svgShape"/><path fill="#16a34a" d="M209.55 195.27l7.8047-23.406 23.746-15.836c2.4336-1.6211 3.8945-4.3516 3.8945-7.2734v-20.414l15.531 20.719-14.062 21.098c-.95312 1.4258-1.4688 3.125-1.4688 4.8477v17.5h17.5v-14.848l16.031-24.047c2.0547-3.0898 1.9414-7.1328-.28125-10.105l-20.344-27.125 22.742-18.191c5.293 12.039 8.1016 25.043 8.1016 38.359v12.207h17.5v-12.207c0-21.438-6.082-42.191-17.5-60.262v-23.781h-17.5v30.801l-8.75 7v-37.801h-17.5v51.801l-14.219 11.375c-2.0742 1.6523-3.2812 4.1641-3.2812 6.8242v21.57l-22.355 14.902c-1.6172 1.0859-2.8359 2.668-3.4492 4.5156l-8.75 26.25zM309.75 89.25c9.0312 12.031 14 26.957 14 42h17.5c0-18.805-6.2109-37.449-17.5-52.5l-8.75-11.664v-32.086h-17.5v35c0 1.8906.61328 3.7344 1.75 5.25zM586.25 341.25h-26.25v-26.25c0-4.8398-3.9219-8.75-8.75-8.75h-402.5c-4.8281 0-8.75 3.9102-8.75 8.75v26.25h-26.25c-4.8281 0-8.75 3.9102-8.75 8.75v35c0 4.8398 3.9219 8.75 8.75 8.75h8.75v157.5h17.5v-157.5h420v157.5h17.5v-157.5h8.75c4.8281 0 8.75-3.9102 8.75-8.75v-35c0-4.8398-3.9219-8.75-8.75-8.75zm-428.75-17.5h385v17.5h-385zm420 52.5h-455v-17.5h455z" class="color000 svgShape"/><use x="70" y="691.25" xlink:href="#a"/><use x="102.109" y="691.25" xlink:href="#b"/><use x="123.684" y="691.25" xlink:href="#c"/><use x="153.355" y="691.25" xlink:href="#d"/><use x="182.879" y="691.25" xlink:href="#e"/><use x="203.793" y="691.25" xlink:href="#c"/><use x="233.465" y="691.25" xlink:href="#f"/><use x="280.012" y="691.25" xlink:href="#g"/><use x="311.328" y="691.25" xlink:href="#h"/><use x="355.078" y="691.25" xlink:href="#i"/><use x="384.922" y="691.25" xlink:href="#c"/><use x="414.594" y="691.25" xlink:href="#j"/><use x="460.184" y="691.25" xlink:href="#k"/><use x="491.5" y="691.25" xlink:href="#l"/><use x="506.496" y="691.25" xlink:href="#d"/><use x="536.02" y="691.25" xlink:href="#e"/><use x="556.934" y="691.25" xlink:href="#c"/></svg></svg>